<svg xmlns="http://www.w3.org/2000/svg" viewBox="0 0 512 512" role="img" aria-labelledby="title">
  <title id="title">Webseiten-Tipp</title>
  <g fill="none" stroke="#000" stroke-linecap="round" stroke-linejoin="round">
    <rect x="14" y="18" width="484" height="374" rx="34" stroke-width="17"/>
    <path d="M14 330h484" stroke-width="17"/>
    <path d="M224 392c-4 38-17 64-44 72" stroke-width="17"/>
    <path d="M288 392c4 38 17 64 44 72" stroke-width="17"/>
    <rect x="132" y="464" width="248" height="32" rx="16" stroke-width="17"/>
    <path d="M226 362h60" stroke-width="17"/>
    <rect x="120" y="82" width="246" height="174" rx="4" stroke-width="15"/>
    <path d="M120 132h246" stroke-width="15"/>
    <rect x="154" y="178" width="72" height="42" rx="4" stroke-width="15"/>
    <path d="M312 198l102 36-34 28 42 43-30 30-42-43-28 34-36-102z" fill="#fff" stroke-width="15"/>
  </g>
</svg>
